<svg width="24" height="24" viewBox="0 0 24 24" fill="none" xmlns="http://www.w3.org/2000/svg">
<g transform="translate(2.0424 0)"><g id="Group">
<path id="Vector" d="M17.9967 10.5965H16.32V6.36163C16.32 2.85373 13.4663 0 9.95816 0C6.4505 0 3.59677 2.85377 3.59677 6.36163V10.5965H1.92002C0.861119 10.5965 0 11.4579 0 12.5166V22.08C0 23.1386 0.861071 24 1.92002 24H17.9967C19.0556 24 19.9168 23.1387 19.9168 22.08V12.5166C19.9168 11.4579 19.0556 10.5965 17.9967 10.5965ZM4.55676 6.36163C4.55676 3.3832 6.97973 0.959984 9.95816 0.959984C12.9366 0.959984 15.36 3.3832 15.36 6.36163V10.5965H4.55676V6.36163ZM18.9568 22.08C18.9568 22.6095 18.526 23.04 17.9968 23.04H1.92002C1.39079 23.04 0.960033 22.6094 0.960033 22.08V12.5166C0.960033 11.9871 1.39084 11.5566 1.92002 11.5566H3.59672H16.32H17.9967C18.5259 11.5566 18.9567 11.9871 18.9567 12.5166V22.08H18.9568Z" fill="black"/>
</g></g>
<g transform="translate(9.78 13.7088)"><g id="Group">
<path id="Vector" d="M4.43908 7.17726L3.71719 3.59741C4.11143 3.20365 4.33265 2.67725 4.33265 2.11311C4.33265 0.948039 3.38486 0 2.21954 0C1.05422 0 0.106421 0.948039 0.106421 2.11311C0.106421 2.67725 0.327648 3.20365 0.721889 3.59741L0 7.17726H4.43908ZM2.21954 0.959984C2.85519 0.959984 3.37267 1.47727 3.37267 2.11311C3.37267 2.47664 3.20204 2.81224 2.90438 3.03395L2.66063 3.2156L3.26625 6.21723H1.17283L1.77845 3.2156L1.5347 3.03395C1.23703 2.81224 1.06641 2.47659 1.06641 2.11311C1.06641 1.47727 1.58394 0.959984 2.21954 0.959984Z" fill="black"/>
</g></g>
</svg>
